<svg width="12" height="15" viewBox="0 0 12 15" fill="none" xmlns="http://www.w3.org/2000/svg">
    <path d="M0.841825 0.500009C0.720975 0.497982 0.60348 0.539796 0.511079 0.617714C0.418679 0.695631 0.357628 0.80438 0.339221 0.923837C0.339221 0.923837 0.166695 2.03396 0.166695 3.20834C0.166695 3.79553 0.205434 4.39988 0.351591 4.9297C0.458465 5.31712 0.644714 5.71092 0.966825 5.95313C0.725107 6.43486 0.537961 6.94649 0.414742 7.48048L0.0130492 9.22071C-0.0144805 9.33972 0.00250235 9.46469 0.0607927 9.57203C0.119083 9.67938 0.214649 9.76168 0.329455 9.80339L2.36722 10.5443C2.95679 10.7586 3.37443 11.2842 3.4499 11.9069C3.60588 13.1925 4.70453 14.1667 6.00003 14.1667C7.29527 14.1667 8.39419 13.1926 8.55016 11.9069C8.62563 11.2842 9.04326 10.7586 9.63284 10.5443L11.6706 9.80339C11.7804 9.76359 11.8729 9.68658 11.9319 9.58573C11.9909 9.48488 12.0127 9.36656 11.9935 9.25131L11.7956 8.06446C11.6699 7.30988 11.4181 6.59148 11.0612 5.93295C11.3679 5.6932 11.5539 5.31921 11.6699 4.94532C11.8335 4.4183 11.8943 3.81348 11.916 3.22657C11.9595 2.05275 11.8301 0.942718 11.8301 0.942718C11.8156 0.817071 11.7539 0.701604 11.6577 0.619578C11.5614 0.537551 11.4376 0.495058 11.3112 0.50066C11.2825 0.501894 11.254 0.505596 11.2259 0.511728C11.2259 0.511728 10.2029 0.735811 9.16409 1.11004C8.64469 1.29715 8.11952 1.5194 7.68883 1.79493C7.36623 2.00132 7.04687 2.25062 6.90693 2.60548C6.58656 2.53586 6.25854 2.50001 5.92776 2.50001C5.6947 2.50001 5.46307 2.51984 5.2344 2.5547C5.08482 2.22755 4.78432 1.99097 4.47789 1.79493C4.0472 1.5194 3.52203 1.29715 3.00263 1.11004C1.96384 0.735811 0.940784 0.511728 0.940784 0.511728C0.90827 0.504537 0.875119 0.500611 0.841825 0.500009ZM1.28388 1.6504C1.62586 1.73408 1.97959 1.80485 2.66409 2.05144C3.14469 2.22458 3.61952 2.43245 3.93883 2.63673C4.05792 2.71292 4.13474 2.78118 4.19469 2.84116C3.96562 2.9343 3.74273 3.04404 3.52998 3.17384L3.52933 3.17449C3.52872 3.17485 3.52797 3.17476 3.52737 3.17514L3.5124 3.18491C3.51153 3.18534 3.51066 3.18577 3.50979 3.18621C2.70787 3.67616 2.02526 4.3217 1.49352 5.07423C1.4351 4.99586 1.37215 4.87075 1.31513 4.66407C1.21129 4.28764 1.16669 3.74615 1.16669 3.20834C1.16669 2.42241 1.23762 2.01129 1.28388 1.6504ZM10.8594 1.65756C10.8921 2.02582 10.946 2.41682 10.9173 3.19011C10.8974 3.7282 10.8332 4.26921 10.7155 4.64845C10.6491 4.86238 10.5767 4.9928 10.5111 5.07423C10.014 4.41481 9.3968 3.8436 8.68167 3.39584L8.37177 3.20183C8.37177 3.20161 8.37177 3.2014 8.37177 3.20118C8.21395 3.10241 8.04969 3.01598 7.88219 2.93751C7.92633 2.87691 8.00975 2.77629 8.22789 2.63673C8.5472 2.43245 9.02203 2.22458 9.50263 2.05144C10.1755 1.80905 10.5116 1.74306 10.8594 1.65756ZM5.92776 3.50001C6.60434 3.50001 7.26772 3.6906 7.84117 4.04949L8.15107 4.2435C9.56694 5.12999 10.5348 6.58055 10.8093 8.22852L10.9382 9.00522L9.29104 9.60483C8.34929 9.94717 7.6785 10.7919 7.55797 11.7865C7.46194 12.5781 6.79745 13.1667 6.00003 13.1667C5.20219 13.1667 4.53813 12.5782 4.44209 11.7865C4.32156 10.7919 3.65077 9.94717 2.70901 9.60483L1.08662 9.01498L1.3887 7.70574C1.741 6.17902 2.69274 4.85851 4.02933 4.04102L4.0469 4.02996C4.04755 4.02952 4.04821 4.02909 4.04886 4.02866C4.61475 3.6829 5.26474 3.50001 5.92776 3.50001ZM3.83336 7.16668C3.70075 7.16668 3.57358 7.21935 3.47981 7.31312C3.38604 7.40689 3.33336 7.53407 3.33336 7.66668C3.33336 7.79928 3.38604 7.92646 3.47981 8.02023C3.57358 8.114 3.70075 8.16668 3.83336 8.16668C3.96597 8.16668 4.09315 8.114 4.18691 8.02023C4.28068 7.92646 4.33336 7.79928 4.33336 7.66668C4.33336 7.53407 4.28068 7.40689 4.18691 7.31312C4.09315 7.21935 3.96597 7.16668 3.83336 7.16668ZM8.16669 7.16668C8.03409 7.16668 7.90691 7.21935 7.81314 7.31312C7.71937 7.40689 7.66669 7.53407 7.66669 7.66668C7.66669 7.79928 7.71937 7.92646 7.81314 8.02023C7.90691 8.114 8.03409 8.16668 8.16669 8.16668C8.2993 8.16668 8.42648 8.114 8.52025 8.02023C8.61402 7.92646 8.66669 7.79928 8.66669 7.66668C8.66669 7.53407 8.61402 7.40689 8.52025 7.31312C8.42648 7.21935 8.2993 7.16668 8.16669 7.16668ZM5.3568 10.5912C5.17021 10.5767 5.00003 10.7239 5.00003 10.9225C5.00003 11.0485 5.07096 11.1637 5.18362 11.2201L5.6667 11.4616C5.6667 11.6456 5.81603 11.7949 6.00003 11.7949C6.18403 11.7949 6.33336 11.6456 6.33336 11.4616L6.81643 11.2201C6.9291 11.1637 7.00003 11.0485 7.00003 10.9225C7.00003 10.6955 6.77786 10.5358 6.56253 10.6074C6.19753 10.7291 5.80286 10.7291 5.43753 10.6074C5.41065 10.5984 5.38345 10.5932 5.3568 10.5912Z" fill="#848A93"/>
</svg>
