<svg width="16" height="15" viewBox="0 0 16 15" fill="none" xmlns="http://www.w3.org/2000/svg">
    <path d="M4.83334 0.5C4.08334 0.5 3.47422 1.01232 3.04232 1.66016C2.61043 2.30799 2.33334 3.13889 2.33334 4C2.33334 4.87963 2.70061 5.5368 3.13673 5.94727C3.29947 6.10044 3.4672 6.21432 3.63087 6.3125C3.12431 6.89126 2.66667 7.78615 2.66667 9C2.66667 9.16198 2.68279 9.32994 2.70704 9.5H1.00001C0.955836 9.49937 0.911982 9.50753 0.870993 9.52401C0.830003 9.54048 0.792696 9.56493 0.76124 9.59595C0.729783 9.62696 0.704804 9.66392 0.687755 9.70467C0.670706 9.74542 0.661926 9.78916 0.661926 9.83333C0.661926 9.87751 0.670706 9.92124 0.687755 9.962C0.704804 10.0027 0.729783 10.0397 0.76124 10.0707C0.792696 10.1017 0.830003 10.1262 0.870993 10.1427C0.911982 10.1591 0.955836 10.1673 1.00001 10.1667H2.86003C2.96544 10.5019 3.11359 10.8389 3.30535 11.1667H1.66667C1.6225 11.166 1.57865 11.1742 1.53766 11.1907C1.49667 11.2071 1.45936 11.2316 1.42791 11.2626C1.39645 11.2936 1.37147 11.3306 1.35442 11.3713C1.33737 11.4121 1.32859 11.4558 1.32859 11.5C1.32859 11.5442 1.33737 11.5879 1.35442 11.6287C1.37147 11.6694 1.39645 11.7064 1.42791 11.7374C1.45936 11.7684 1.49667 11.7929 1.53766 11.8093C1.57865 11.8258 1.6225 11.834 1.66667 11.8333H3.76889C4.3881 12.5916 5.26377 13.2301 6.38217 13.5605C6.44188 13.8275 6.55895 14.0844 6.75131 14.3008C7.03739 14.6226 7.48612 14.8333 8.00001 14.8333C8.5139 14.8333 8.96262 14.6226 9.2487 14.3008C9.44107 14.0844 9.55813 13.8275 9.61784 13.5605C10.7362 13.2301 11.6119 12.5916 12.2311 11.8333H14.3333C14.3775 11.834 14.4214 11.8258 14.4624 11.8093C14.5033 11.7929 14.5407 11.7684 14.5721 11.7374C14.6036 11.7064 14.6285 11.6694 14.6456 11.6287C14.6626 11.5879 14.6714 11.5442 14.6714 11.5C14.6714 11.4558 14.6626 11.4121 14.6456 11.3713C14.6285 11.3306 14.6036 11.2936 14.5721 11.2626C14.5407 11.2316 14.5033 11.2071 14.4624 11.1907C14.4214 11.1742 14.3775 11.166 14.3333 11.1667H12.6947C12.8864 10.8389 13.0346 10.5019 13.14 10.1667H15C15.0442 10.1673 15.088 10.1591 15.129 10.1427C15.17 10.1262 15.2073 10.1017 15.2388 10.0707C15.2702 10.0397 15.2952 10.0027 15.3123 9.962C15.3293 9.92124 15.3381 9.87751 15.3381 9.83333C15.3381 9.78916 15.3293 9.74542 15.3123 9.70467C15.2952 9.66392 15.2702 9.62696 15.2388 9.59595C15.2073 9.56493 15.17 9.54048 15.129 9.52401C15.088 9.50753 15.0442 9.49937 15 9.5H13.293C13.3172 9.32994 13.3333 9.16198 13.3333 9C13.3333 7.78615 12.8757 6.89126 12.3691 6.3125C12.5328 6.21432 12.7005 6.10044 12.8633 5.94727C13.2994 5.5368 13.6667 4.87963 13.6667 4C13.6667 3.13889 13.3896 2.30799 12.9577 1.66016C12.5258 1.01232 11.9167 0.5 11.1667 0.5C10.75 0.5 10.4023 0.728537 10.1784 0.980469C9.95445 1.2324 9.80771 1.51675 9.67774 1.77669C9.54777 2.03663 9.43385 2.27599 9.34441 2.41016C9.30072 2.47569 9.27898 2.49692 9.27605 2.50326C9.2559 2.50529 9.2359 2.50856 9.21615 2.51302C9.14115 2.50496 9.0685 2.5 9.00001 2.5C8.55005 2.5 8.22641 2.63764 8.00001 2.75977C7.7736 2.63764 7.44997 2.5 7.00001 2.5C6.93152 2.5 6.85886 2.50496 6.78386 2.51302C6.76433 2.50858 6.74454 2.50532 6.72462 2.50326C6.72181 2.49701 6.69944 2.47591 6.65561 2.41016C6.56616 2.27599 6.45224 2.03663 6.32227 1.77669C6.1923 1.51675 6.04556 1.2324 5.82162 0.980469C5.59768 0.728537 5.25001 0.5 4.83334 0.5ZM4.83334 1.5C4.91667 1.5 4.96483 1.52146 5.07423 1.64453C5.18362 1.7676 5.30771 1.98325 5.42774 2.22331C5.52985 2.42753 5.63375 2.64502 5.75977 2.85417C5.56265 2.96394 5.36351 3.09909 5.16863 3.27148C4.65423 3.72652 4.22839 4.44416 4.07748 5.41602C3.98922 5.35883 3.90218 5.29522 3.82162 5.2194C3.54941 4.9632 3.33334 4.62037 3.33334 4C3.33334 3.36111 3.55625 2.69201 3.87436 2.21484C4.19246 1.73768 4.58334 1.5 4.83334 1.5ZM11.1667 1.5C11.4167 1.5 11.8076 1.73768 12.1257 2.21484C12.4438 2.69201 12.6667 3.36111 12.6667 4C12.6667 4.62037 12.4506 4.9632 12.1784 5.2194C12.0978 5.29522 12.0108 5.35883 11.9225 5.41602C11.7716 4.44416 11.3458 3.72652 10.8314 3.27148C10.6365 3.09909 10.4374 2.96394 10.2402 2.85417C10.3663 2.64502 10.4702 2.42753 10.5723 2.22331C10.6923 1.98325 10.8164 1.7676 10.9258 1.64453C11.0352 1.52146 11.0833 1.5 11.1667 1.5ZM7.00001 3.5C7.27778 3.5 7.72266 3.74935 7.72266 3.74935C7.8048 3.8041 7.9013 3.83331 8.00001 3.83331C8.09871 3.83331 8.19522 3.8041 8.27735 3.74935C8.27735 3.74935 8.72223 3.5 9.00001 3.5C9.16667 3.5 9.72683 3.62936 10.1686 4.02018C10.6104 4.41101 11 5.03889 11 6.16667C11 6.18341 11.0009 6.20014 11.0026 6.2168C11.004 6.23011 11.006 6.24336 11.0085 6.25651C11.01 6.26458 11.0117 6.27261 11.0137 6.2806C11.0153 6.2878 11.017 6.29496 11.0189 6.30208C11.0207 6.30885 11.0227 6.31558 11.0247 6.32227C11.0292 6.33549 11.0342 6.34852 11.0397 6.36133C11.046 6.37597 11.0529 6.39031 11.0606 6.4043C11.0614 6.40582 11.0623 6.40734 11.0632 6.40885C11.0693 6.41995 11.0758 6.43081 11.0827 6.44141C11.0861 6.44668 11.0895 6.45189 11.0931 6.45703C11.0999 6.46639 11.1071 6.47551 11.1146 6.48437C11.1169 6.48722 11.1193 6.49004 11.1218 6.49284C11.1303 6.50273 11.1392 6.51229 11.1484 6.52148C11.1506 6.52367 11.1528 6.52584 11.155 6.52799C11.165 6.53754 11.1754 6.54666 11.1862 6.55534C11.1892 6.55776 11.1923 6.56015 11.1953 6.5625C11.2032 6.5686 11.2112 6.57446 11.2194 6.58008C11.2205 6.58095 11.2216 6.58182 11.2227 6.58268C11.552 6.80223 12.3333 7.68518 12.3333 9C12.3333 9.15322 12.3126 9.32226 12.2741 9.5H11C10.9558 9.49937 10.912 9.50753 10.871 9.52401C10.83 9.54048 10.7927 9.56493 10.7612 9.59595C10.7298 9.62696 10.7048 9.66392 10.6878 9.70467C10.6707 9.74542 10.6619 9.78916 10.6619 9.83333C10.6619 9.87751 10.6707 9.92124 10.6878 9.962C10.7048 10.0027 10.7298 10.0397 10.7612 10.0707C10.7927 10.1017 10.83 10.1262 10.871 10.1427C10.912 10.1591 10.9558 10.1673 11 10.1667H12.0527C11.9067 10.5011 11.7038 10.8431 11.4434 11.1667H10.3333C10.2892 11.166 10.2453 11.1742 10.2043 11.1907C10.1633 11.2071 10.126 11.2316 10.0946 11.2626C10.0631 11.2936 10.0381 11.3306 10.0211 11.3713C10.004 11.4121 9.99526 11.4558 9.99526 11.5C9.99526 11.5442 10.004 11.5879 10.0211 11.6287C10.0381 11.6694 10.0631 11.7064 10.0946 11.7374C10.126 11.7684 10.1633 11.7929 10.2043 11.8093C10.2453 11.8258 10.2892 11.834 10.3333 11.8333H10.7845C10.4321 12.1203 10.0184 12.3614 9.54753 12.5312C9.47893 12.3526 9.3821 12.1826 9.2487 12.0326C8.96262 11.7107 8.5139 11.5 8.00001 11.5C7.48612 11.5 7.03739 11.7107 6.75131 12.0326C6.61792 12.1826 6.52109 12.3526 6.45248 12.5312C5.98158 12.3614 5.56794 12.1203 5.2155 11.8333H5.66667C5.71084 11.834 5.7547 11.8258 5.79569 11.8093C5.83668 11.7929 5.87398 11.7684 5.90544 11.7374C5.9369 11.7064 5.96188 11.6694 5.97893 11.6287C5.99597 11.5879 6.00475 11.5442 6.00475 11.5C6.00475 11.4558 5.99597 11.4121 5.97893 11.3713C5.96188 11.3306 5.9369 11.2936 5.90544 11.2626C5.87398 11.2316 5.83668 11.2071 5.79569 11.1907C5.7547 11.1742 5.71084 11.166 5.66667 11.1667H4.55665C4.2962 10.8431 4.09335 10.5011 3.94727 10.1667H5.00001C5.04418 10.1673 5.08803 10.1591 5.12902 10.1427C5.17001 10.1262 5.20732 10.1017 5.23877 10.0707C5.27023 10.0397 5.29521 10.0027 5.31226 9.962C5.32931 9.92124 5.33809 9.87751 5.33809 9.83333C5.33809 9.78916 5.32931 9.74542 5.31226 9.70467C5.29521 9.66392 5.27023 9.62696 5.23877 9.59595C5.20732 9.56493 5.17001 9.54048 5.12902 9.52401C5.08803 9.50753 5.04418 9.49937 5.00001 9.5H3.72592C3.68741 9.32226 3.66667 9.15322 3.66667 9C3.66667 7.6906 4.44114 6.81067 4.77279 6.58659L4.77344 6.58594C4.77475 6.58486 4.77605 6.58377 4.77735 6.58268C4.7899 6.57434 4.80206 6.56543 4.81381 6.55599C4.81512 6.55491 4.81642 6.55383 4.81772 6.55273C4.82922 6.54325 4.8403 6.53326 4.85092 6.52279C4.85201 6.52171 4.85309 6.52062 4.85417 6.51953C4.86487 6.50893 4.87508 6.49785 4.88477 6.48633C4.88586 6.48503 4.88695 6.48373 4.88803 6.48242C4.89747 6.47068 4.90638 6.45851 4.91472 6.44596C4.91559 6.44466 4.91646 6.44336 4.91732 6.44206C4.91931 6.43882 4.92127 6.43557 4.92318 6.43229C4.93013 6.42127 4.93665 6.40997 4.94272 6.39844C4.9504 6.38382 4.95735 6.36882 4.96355 6.35352C4.97604 6.32263 4.98542 6.29057 4.99154 6.25781C4.99456 6.24122 4.99673 6.22449 4.99805 6.20768C4.99974 6.19124 5.00061 6.17473 5.00066 6.1582C5.00272 5.03606 5.39076 4.40997 5.83139 4.02018C6.27319 3.62936 6.83334 3.5 7.00001 3.5ZM6.33334 6.83333C6.15653 6.83333 5.98696 6.90357 5.86194 7.0286C5.73691 7.15362 5.66667 7.32319 5.66667 7.5C5.66667 7.67681 5.73691 7.84638 5.86194 7.9714C5.98696 8.09643 6.15653 8.16667 6.33334 8.16667C6.51015 8.16667 6.67972 8.09643 6.80474 7.9714C6.92977 7.84638 7.00001 7.67681 7.00001 7.5C7.00001 7.32319 6.92977 7.15362 6.80474 7.0286C6.67972 6.90357 6.51015 6.83333 6.33334 6.83333ZM9.66667 6.83333C9.48986 6.83333 9.32029 6.90357 9.19527 7.0286C9.07024 7.15362 9.00001 7.32319 9.00001 7.5C9.00001 7.67681 9.07024 7.84638 9.19527 7.9714C9.32029 8.09643 9.48986 8.16667 9.66667 8.16667C9.84348 8.16667 10.0131 8.09643 10.1381 7.9714C10.2631 7.84638 10.3333 7.67681 10.3333 7.5C10.3333 7.32319 10.2631 7.15362 10.1381 7.0286C10.0131 6.90357 9.84348 6.83333 9.66667 6.83333ZM8.00001 12.5C8.2639 12.5 8.3985 12.581 8.50131 12.6966C8.60412 12.8123 8.66667 12.9861 8.66667 13.1667C8.66667 13.3472 8.60412 13.5211 8.50131 13.6367C8.3985 13.7524 8.2639 13.8333 8.00001 13.8333C7.73612 13.8333 7.60151 13.7524 7.4987 13.6367C7.3959 13.5211 7.33334 13.3472 7.33334 13.1667C7.33334 13.1658 7.33334 13.1649 7.33334 13.1641C7.33394 12.9844 7.39639 12.8117 7.4987 12.6966C7.60151 12.581 7.73612 12.5 8.00001 12.5Z" fill="#848A93"/>
</svg>
